<svg xmlns="http://www.w3.org/2000/svg" width="263" height="130" viewBox="0 0 263 130" fill="none">
    <g clip-path="url(#clip0_1152_18897)">
        <path d="M167.207 84.5289C167.207 54.5061 150.439 36.6022 124.666 36.6022C98.8937 36.6022 81.9515 53.6322 81.9515 83.6478C81.9515 113.663 98.7194 129.993 124.666 129.993C145.145 129.993 160.497 118.228 164.738 101.906H148.849C145.32 109.453 138.079 116.126 124.666 116.126C107.368 116.126 98.5451 105.242 96.7732 89.6205H167.207V84.5289ZM96.9547 76.1006C99.0752 61.0061 108.254 50.2956 124.666 50.2956C141.079 50.2956 149.735 60.8256 151.848 76.1006H96.9475H96.9547Z" fill="#F5F5F5"/>
        <path d="M220.038 36.6022C194.091 36.6022 177.323 53.6322 177.323 83.6478C177.323 113.663 194.091 129.993 220.038 129.993C245.985 129.993 262.579 114.191 262.579 83.6478C262.579 53.105 245.811 36.6022 220.038 36.6022ZM220.038 116.48C201.505 116.48 191.44 102.086 191.44 83.4744C191.44 64.8628 201.498 49.9417 220.038 49.9417C238.578 49.9417 248.454 64.5161 248.454 83.4744C248.454 102.433 238.745 116.48 220.038 116.48Z" fill="#F5F5F5"/>
        <path d="M60.5214 0H45.2785L19.9559 73.8978H35.3804L60.5214 0Z" fill="#F5F5F5"/>
        <path d="M4.66945 73.8978L0 87.5044H15.2865L19.9559 73.8906H4.66945V73.8978Z" fill="#C4FFC2"/>
        <path d="M21.982 112.789L30.602 87.5044H15.2865L1.95349 126.396H16.4339H17.3416H75.8659V112.789H21.982Z" fill="#F5F5F5"/>
    </g>
    <defs>
        <clipPath id="clip0_1152_18897">
            <rect width="262.579" height="130" fill="white"/>
        </clipPath>
    </defs>
</svg>